<svg width="22" height="13" viewBox="0 0 22 13" fill="none" xmlns="http://www.w3.org/2000/svg">
<path fill-rule="evenodd" clip-rule="evenodd" d="M21.1759 1.02291C21.3243 0.528458 21.1759 0.165039 20.4701 0.165039H18.1362C17.5427 0.165039 17.2693 0.478946 17.121 0.825193C17.121 0.825193 15.934 3.71804 14.2526 5.59714C13.7087 6.1411 13.4614 6.31398 13.1647 6.31398C13.0163 6.31398 12.8016 6.1411 12.8016 5.64665V1.02291C12.8016 0.429435 12.6294 0.165039 12.1348 0.165039H8.46726C8.09651 0.165039 7.87346 0.440437 7.87346 0.701498C7.87346 1.26413 8.71399 1.39383 8.80067 2.9762V6.41317C8.80067 7.16667 8.66464 7.30337 8.36791 7.30337C7.57672 7.30337 5.65227 4.39736 4.51067 1.07242C4.28695 0.4261 4.06257 0.165039 3.4661 0.165039H1.13222C0.465396 0.165039 0.332031 0.478946 0.332031 0.825193C0.332031 1.44334 1.12338 4.50939 4.01622 8.56433C5.94501 11.3333 8.66198 12.8347 11.1346 12.8347C12.6182 12.8347 12.8016 12.5013 12.8016 11.927V9.83396C12.8016 9.16714 12.9421 9.03411 13.4118 9.03411C13.7582 9.03411 14.3515 9.20715 15.7363 10.5423C17.3187 12.1245 17.5794 12.8347 18.4696 12.8347H20.8035C21.4703 12.8347 21.8037 12.5013 21.6113 11.8433C21.4009 11.1874 20.6454 10.2362 19.6429 9.10829C19.0989 8.46531 18.2829 7.77298 18.0358 7.4269C17.6896 6.9818 17.7884 6.78408 18.0358 6.38866C18.0358 6.38866 20.8792 2.38306 21.1759 1.02307V1.02291Z" fill="white"/>
</svg>
