<svg width="24" height="17" viewBox="0 0 24 17" fill="none" xmlns="http://www.w3.org/2000/svg">
<path opacity="0.3" d="M8 11.5C5.3 11.5 2.2 12.79 2 13.51V14.5H14V13.5C13.8 12.79 10.7 11.5 8 11.5Z" fill="#FFAB00"/>
<path opacity="0.3" d="M8 6.5C9.10457 6.5 10 5.60457 10 4.5C10 3.39543 9.10457 2.5 8 2.5C6.89543 2.5 6 3.39543 6 4.5C6 5.60457 6.89543 6.5 8 6.5Z" fill="#FFAB00"/>
<path d="M22 5.5V3.5H20V5.5H18V7.5H20V9.5H22V7.5H24V5.5H22Z" fill="#FFAB00"/>
<path d="M8 8.5C10.21 8.5 12 6.71 12 4.5C12 2.29 10.21 0.5 8 0.5C5.79 0.5 4 2.29 4 4.5C4 6.71 5.79 8.5 8 8.5ZM8 2.5C9.1 2.5 10 3.4 10 4.5C10 5.6 9.1 6.5 8 6.5C6.9 6.5 6 5.6 6 4.5C6 3.4 6.9 2.5 8 2.5Z" fill="#FFAB00"/>
<path d="M8 9.5C5.33 9.5 0 10.84 0 13.5V16.5H16V13.5C16 10.84 10.67 9.5 8 9.5ZM14 14.5H2V13.51C2.2 12.79 5.3 11.5 8 11.5C10.7 11.5 13.8 12.79 14 13.5V14.5Z" fill="#FFAB00"/>
<path d="M12.51 0.549805C13.43 1.6098 14 2.9898 14 4.4998C14 6.0098 13.43 7.3898 12.51 8.4498C14.47 8.1998 16 6.5398 16 4.4998C16 2.4598 14.47 0.799805 12.51 0.549805Z" fill="#FFAB00"/>
<path d="M16.53 10.3301C17.42 11.1601 18 12.2001 18 13.5001V16.5001H20V13.5001C20 12.0501 18.41 10.9901 16.53 10.3301Z" fill="#FFAB00"/>
</svg>
