<svg width="18" height="19" viewBox="0 0 18 19" fill="none" xmlns="http://www.w3.org/2000/svg">
<path d="M3.54 2.5C3.6 3.39 3.75 4.26 3.99 5.09L2.79 6.29C2.38 5.09 2.12 3.82 2.03 2.5H3.54ZM13.4 14.52C14.25 14.76 15.12 14.91 16 14.97V16.46C14.68 16.37 13.41 16.11 12.2 15.71L13.4 14.52ZM4.5 0.5H1C0.45 0.5 0 0.95 0 1.5C0 10.89 7.61 18.5 17 18.5C17.55 18.5 18 18.05 18 17.5V14.01C18 13.46 17.55 13.01 17 13.01C15.76 13.01 14.55 12.81 13.43 12.44C13.33 12.4 13.22 12.39 13.12 12.39C12.86 12.39 12.61 12.49 12.41 12.68L10.21 14.88C7.38 13.43 5.06 11.12 3.62 8.29L5.82 6.09C6.1 5.81 6.18 5.42 6.07 5.07C5.7 3.95 5.5 2.75 5.5 1.5C5.5 0.95 5.05 0.5 4.5 0.5Z" fill="white"/>
</svg>
