<svg width="20" height="21" viewBox="0 0 20 21" fill="none" xmlns="http://www.w3.org/2000/svg">
<path d="M10 0.5C4.48 0.5 0 4.98 0 10.5C0 16.02 4.48 20.5 10 20.5H15V18.5H10C5.66 18.5 2 14.84 2 10.5C2 6.16 5.66 2.5 10 2.5C14.34 2.5 18 6.16 18 10.5V11.93C18 12.72 17.29 13.5 16.5 13.5C15.71 13.5 15 12.72 15 11.93V10.5C15 7.74 12.76 5.5 10 5.5C7.24 5.5 5 7.74 5 10.5C5 13.26 7.24 15.5 10 15.5C11.38 15.5 12.64 14.94 13.54 14.03C14.19 14.92 15.31 15.5 16.5 15.5C18.47 15.5 20 13.9 20 11.93V10.5C20 4.98 15.52 0.5 10 0.5ZM10 13.5C8.34 13.5 7 12.16 7 10.5C7 8.84 8.34 7.5 10 7.5C11.66 7.5 13 8.84 13 10.5C13 12.16 11.66 13.5 10 13.5Z" fill="white"/>
</svg>
